Coordinates
version=1
nRows=4
nColumns=114
inDegrees=yes

Units are S.I. units (second, meters, Newtons, ...)
If the header above contains a line with 'inDegrees', this indicates whether rotational values are in degrees (yes) or radians (no).

endheader 
time	pelvis_tilt	pelvis_list	pelvis_rotation	pelvis_tx	pelvis_ty	pelvis_tz	hip_flexion_l	hip_adduction_l	hip_rotation_l	hip_flexion_r	hip_adduction_r	hip_rotation_r	knee_angle_l	knee_angle_r	ankle_angle_l	ankle_angle_r	subtalar_angle_l	subtalar_angle_r	mtp_angle_l	mtp_angle_r	lumbar_extension	lumbar_bending	lumbar_rotation	arm_flex_l	arm_add_l	arm_rot_l	arm_flex_r	arm_add_r	arm_rot_r	elbow_flex_l	elbow_flex_r	pro_sup_l	pro_sup_r	addbrev_l/activation	addlong_l/activation	addmagDist_l/activation	addmagIsch_l/activation	addmagMid_l/activation	addmagProx_l/activation	bflh_l/activation	bfsh_l/activation	edl_l/activation	ehl_l/activation	fdl_l/activation	fhl_l/activation	gaslat_l/activation	gasmed_l/activation	glmax1_l/activation	glmax2_l/activation	glmax3_l/activation	glmed1_l/activation	glmed2_l/activation	glmed3_l/activation	glmin1_l/activation	glmin2_l/activation	glmin3_l/activation	grac_l/activation	iliacus_l/activation	perbrev_l/activation	perlong_l/activation	piri_l/activation	psoas_l/activation	recfem_l/activation	sart_l/activation	semimem_l/activation	semiten_l/activation	soleus_l/activation	tfl_l/activation	tibant_l/activation	tibpost_l/activation	vasint_l/activation	vaslat_l/activation	vasmed_l/activation	addbrev_r/activation	addlong_r/activation	addmagDist_r/activation	addmagIsch_r/activation	addmagMid_r/activation	addmagProx_r/activation	bflh_r/activation	bfsh_r/activation	edl_r/activation	ehl_r/activation	fdl_r/activation	fhl_r/activation	gaslat_r/activation	gasmed_r/activation	glmax1_r/activation	glmax2_r/activation	glmax3_r/activation	glmed1_r/activation	glmed2_r/activation	glmed3_r/activation	glmin1_r/activation	glmin2_r/activation	glmin3_r/activation	grac_r/activation	iliacus_r/activation	perbrev_r/activation	perlong_r/activation	piri_r/activation	psoas_r/activation	recfem_r/activation	sart_r/activation	semimem_r/activation	semiten_r/activation	soleus_r/activation	tfl_r/activation	tibant_r/activation	tibpost_r/activation	vasint_r/activation	vaslat_r/activation	vasmed_r/activation	
          5.20000000	         -1.39243723	         -4.40274159	        -45.92515943	         -2.56394650	          0.80680955	          0.15287556	         34.64243624	        -26.15917469	         11.43401284	         31.75391177	        -29.09708113	          6.55916095	         52.82460765	         64.84934888	         -8.79680963	         27.72679511	        -31.47239548	         -7.62509116	         -4.00818411	         -0.00787103	         26.15301391	         10.85235930	        -32.54904499	       -497.36789261	       -184.00898165	       -137.29472575	       -259.16262837	       -110.35281139	         57.58940074	         87.05336408	        134.54493739	         86.20196016	         64.29445984	          0.06038208	          0.19502961	          0.01018792	          0.02128277	          0.01017283	          0.22707054	          0.09620294	          0.13846225	          0.16293265	          0.11395518	          0.27451876	          0.42350970	          0.24678419	          0.30635764	          0.14410994	          0.01082312	          0.01926386	          0.43224847	          0.46716134	          0.41434151	          0.10404225	          0.08575243	          0.04672793	          0.15191002	          0.12657114	          0.01476437	          0.01457392	          0.02428658	          0.35935445	          0.24916867	          0.26382063	          0.02284103	          0.05294891	          0.80277273	          0.02327407	          0.47090598	          0.74021696	          0.29709352	          0.75035604	          0.45533751	          0.01013410	          0.01036187	          0.01023864	          0.01034033	          0.01017104	          0.01023436	          0.04770654	          0.18623029	          0.10652155	          0.04503218	          0.01152155	          0.01056872	          0.01426300	          0.05347997	          0.17767497	          0.28664619	          0.01070649	          0.04253410	          0.16659154	          0.20364718	          0.01750105	          0.05631003	          0.16247226	          0.01490561	          0.03778252	          0.05198635	          0.14834484	          0.12230586	          0.05087652	          0.05187855	          0.30945703	          0.10749500	          0.02516875	          0.01667802	          0.06194509	          0.07639564	          0.02223289	          0.01021805	          0.01007589	          0.01015178	
          5.21000000	         -1.88580660	         -5.06533614	        -43.59991565	         -2.54193113	          0.80220869	          0.14557339	         36.46186606	        -24.73455711	         13.56049256	         27.54715367	        -29.94240279	          4.75150505	         55.60557983	         61.57038583	         -7.79654928	         24.40356646	        -30.83077357	        -10.95653957	         -8.37466649	         -0.02347784	         26.93354397	          9.19299567	        -33.77749182	       -523.34118965	       -193.87947624	       -147.09152999	       -200.88166782	       -103.25913213	         76.68550507	         94.01146409	        141.50739245	         92.22199712	         63.63189152	          0.09877825	          0.16285001	          0.01352299	          0.30599732	          0.01364231	          0.18927598	          0.09074066	          0.11541285	          0.13579316	          0.09515016	          0.22891429	          0.35306124	          0.20568084	          0.25531253	          0.12015383	          0.01008980	          0.01608375	          0.36023070	          0.38932542	          0.34530907	          0.08685340	          0.07154745	          0.03908901	          0.12666499	          0.10549780	          0.01231635	          0.01215036	          0.02025738	          0.29947388	          0.20764587	          0.21986215	          0.12155424	          0.04426717	          0.66910931	          0.01948016	          0.39246768	          0.61687312	          0.37412441	          0.89142573	          0.50758078	          0.01013172	          0.01005389	          0.01019727	          0.01029705	          0.01013568	          0.01018287	          0.03990168	          0.23246256	          0.09004507	          0.03775733	          0.01077715	          0.01037547	          0.01364786	          0.05628832	          0.25691935	          0.37943924	          0.01038757	          0.16526515	          0.13953875	          0.20098463	          0.02385028	          0.09670657	          0.13557915	          0.01248180	          0.03149451	          0.08755919	          0.17015874	          0.24508612	          0.04240663	          0.04519223	          0.43436329	          0.12033767	          0.02170124	          0.02179492	          0.11658926	          0.06366535	          0.01854198	          0.01017110	          0.01005929	          0.01011943	
          5.22000000	         -1.95546563	         -5.89654621	        -40.90552798	         -2.52101568	          0.79825537	          0.14001672	         37.79099433	        -23.20042702	         15.35633326	         22.40594087	        -30.59408029	          2.59037851	         58.21815030	         58.37091687	         -7.02274306	         20.49597101	        -30.55960962	        -14.43493000	        -13.04402444	         -0.03190585	         27.02807439	          7.13263911	        -35.61206164	       -551.63162033	       -201.30771599	       -158.39013350	       -121.95423985	       -101.15246614	        119.35774472	        104.37777613	        142.85008501	        101.64244725	         66.69927302	          0.08477689	          0.13616576	          0.27628194	          0.27099085	          0.20958307	          0.15784078	          0.15596788	          0.09620653	          0.11318744	          0.07961360	          0.19091980	          0.29437083	          0.17141481	          0.21276971	          0.10018973	          0.01175487	          0.02553218	          0.30020664	          0.32445234	          0.28777349	          0.07245504	          0.05967550	          0.03272237	          0.10572140	          0.08793000	          0.01031150	          0.01014987	          0.01689988	          0.24957274	          0.17305832	          0.18323027	          0.18622216	          0.15157453	          0.55761248	          0.01630127	          0.32708902	          0.51407954	          0.39009945	          0.95882456	          0.50283708	          0.01007056	          0.01003299	          0.01015242	          0.01026684	          0.01008555	          0.01010727	          0.03341144	          0.30281572	          0.07515424	          0.03157279	          0.01056843	          0.01029397	          0.01364041	          0.05566491	          0.31947561	          0.35764647	          0.01673538	          0.13818769	          0.44381542	          0.36123690	          0.02048326	          0.15214776	          0.15374146	          0.01050804	          0.02625386	          0.08367467	          0.15491892	          0.39651067	          0.03534821	          0.03767103	          0.50636483	          0.10371966	          0.02094803	          0.02864634	          0.18818210	          0.05305636	          0.01546540	          0.01012037	          0.01004161	          0.01008450	
          5.23000000	         -1.52380926	         -6.84325841	        -37.99091475	         -2.50162703	          0.79573648	          0.13612726	         38.23201118	        -21.43238793	         17.35767325	         16.44183588	        -30.88471021	          0.27366265	         60.34255225	         55.14983572	         -6.11299236	         15.92438972	        -30.30786981	        -17.92684897	        -16.98828739	         -0.02321076	         26.64116298	          4.65765093	        -36.44468933	       -576.21292153	       -203.26565399	       -166.26679660	        -55.31372186	       -110.19395665	        163.64033641	        112.34892536	        141.15834019	        112.10571723	         70.69151373	          0.12182124	          0.14448158	          0.23044313	          0.22590974	          0.17653431	          0.13178088	          0.25642021	          0.08020258	          0.09437395	          0.06782542	          0.15917997	          0.24536808	          0.14285837	          0.17731728	          0.08354746	          0.01199481	          0.40730983	          0.25018496	          0.27039022	          0.23982584	          0.06044794	          0.04977661	          0.02742020	          0.08849895	          0.07328931	          0.01009802	          0.01003791	          0.01410236	          0.20798968	          0.14421922	          0.15270435	          0.15521279	          0.12704338	          0.46468316	          0.01364708	          0.27259060	          0.42841503	          0.38371932	          0.97670829	          0.49706984	          0.01006086	          0.01002898	          0.01012736	          0.01020318	          0.01007152	          0.01009395	          0.02789331	          0.32578660	          0.06267207	          0.02636928	          0.01058845	          0.01030684	          0.01588819	          0.05414910	          0.26630814	          0.29807815	          0.01612339	          0.11553142	          0.37036585	          0.30120409	          0.01759725	          0.17593205	          0.12817129	          0.01018306	          0.02188924	          0.08960434	          0.16713617	          0.36223500	          0.02946939	          0.03173637	          0.69589318	          0.08646312	          0.01761452	          0.04103332	          0.29326082	          0.04421520	          0.01290848	          0.01010427	          0.01003569	          0.01007288	
